<svg width="54" height="52" viewBox="0 0 54 52" fill="none" xmlns="http://www.w3.org/2000/svg">
<path d="M54 14.6406V14.6383C54 14.636 53.9994 14.6343 53.9994 14.632C53.9987 14.5705 53.9891 14.5091 53.9737 14.4487C53.9686 14.4293 53.9616 14.4111 53.9552 14.3923C53.9411 14.3508 53.9231 14.3098 53.9014 14.2694C53.8898 14.2483 53.8777 14.2272 53.8642 14.2073C53.8552 14.1936 53.8488 14.1783 53.8392 14.1652C53.8219 14.1424 53.8008 14.1236 53.7816 14.1026C53.7662 14.0855 53.7521 14.0684 53.7355 14.0524C53.6862 14.0058 53.633 13.9642 53.5747 13.9295C53.5741 13.9289 53.5734 13.9283 53.5728 13.9278L53.5721 13.9272C53.5702 13.9261 53.5683 13.9249 53.567 13.9238L30.272 0.143045C29.9492 -0.0476817 29.5297 -0.0476817 29.2068 0.143045L21.0072 5.00231L21.0065 5.00288L13.4723 9.46703C13.3692 9.50745 13.2725 9.56268 13.1892 9.63498L0.4349 17.1935C0.373412 17.2293 0.317048 17.2737 0.264527 17.3227C0.247874 17.3386 0.233783 17.3557 0.218411 17.3728C0.199196 17.3939 0.178059 17.4121 0.160766 17.4354C0.150518 17.4485 0.144753 17.4633 0.135786 17.477C0.122335 17.4975 0.109526 17.5186 0.0979966 17.5408C0.07686 17.58 0.0595664 17.6205 0.0454753 17.6615C0.0384298 17.6814 0.0313845 17.7002 0.0262605 17.7201C0.0115289 17.7782 0.00256186 17.8368 0.00192136 17.896C0.00192136 17.9006 0 17.9046 0 17.9086V17.9131V17.9137V37.135C0 37.4208 0.160766 37.6878 0.428495 37.8461L23.728 51.6308C23.7312 51.6325 23.7344 51.6331 23.7376 51.6348C23.8049 51.6735 23.8785 51.7025 23.9554 51.7259C23.9746 51.7316 23.9932 51.7373 24.0124 51.7418C24.0918 51.7606 24.1738 51.7737 24.2596 51.7737C24.3454 51.7737 24.4274 51.7606 24.5069 51.7412C24.5261 51.7367 24.5453 51.731 24.5639 51.7253C24.6426 51.702 24.7182 51.6723 24.7861 51.6325C24.788 51.6314 24.79 51.6308 24.7919 51.6302L24.7957 51.6279C24.7964 51.6279 24.7964 51.6274 24.797 51.6274L53.5709 34.5758C53.838 34.4175 53.9987 34.1511 53.9987 33.8653V14.6446C54 14.6434 54 14.6417 54 14.6406ZM29.7404 1.87951L51.3061 14.6389L44.4854 18.6811L23.2406 5.73163L29.7404 1.87951ZM24.2603 30.6668L2.69331 17.9074L13.8668 11.2861L35.1123 24.2356L24.2603 30.6668ZM21.5176 6.75245L42.7624 19.702L36.8346 23.2147L15.5892 10.2652L21.5176 6.75245ZM37.7678 24.7144L43.4714 21.3342L43.2684 29.3812L37.7678 32.5888V24.7144ZM1.9215 19.5021L23.2995 32.1504V49.325L1.9215 36.6772V19.5021ZM25.221 49.3238V32.1499L35.8463 25.853V34.1704C35.8463 34.4841 36.0404 34.7728 36.3504 34.922C36.4938 34.9903 36.6507 35.0244 36.807 35.0244C36.9909 35.0244 37.1747 34.9778 37.3342 34.8844L44.7448 30.5626C45.0086 30.4083 45.1707 30.1487 45.1784 29.8674L45.4224 20.1779L52.0785 16.2336V33.4081L25.221 49.3238Z" fill="#9B9B9B"/>
<path d="M21.5421 36.3931C21.8528 36.3931 22.1577 36.2599 22.3428 36.0122C22.6367 35.62 22.517 35.0894 22.0757 34.828L11.068 28.3154C10.6261 28.0541 10.0291 28.16 9.73578 28.5534C9.44179 28.9457 9.56156 29.4763 10.0029 29.7376L21.0112 36.2502C21.1745 36.347 21.3596 36.3931 21.5421 36.3931Z" fill="#9B9B9B"/>
<path d="M22.0754 39.283L15.7716 35.5533C15.3297 35.292 14.7327 35.3984 14.4394 35.7913C14.1454 36.1836 14.2652 36.7142 14.7065 36.9755L21.0103 40.7052C21.1736 40.802 21.3587 40.8481 21.5419 40.8481C21.8525 40.8481 22.1574 40.7149 22.3425 40.4672C22.6365 40.0744 22.5167 39.5443 22.0754 39.283Z" fill="#9B9B9B"/>
</svg>
