<svg width="54" height="36" viewBox="0 0 54 36" fill="none" xmlns="http://www.w3.org/2000/svg">
<path d="M49.8153 0H4.18527C1.87769 0 0 1.87769 0 4.18526V6.98239V13.01V31.1328C0 33.4404 1.87769 35.3175 4.18527 35.3175H49.8153C52.1229 35.3175 54 33.4404 54 31.1328V13.01V6.98239V4.18526C54 1.87769 52.1229 0 49.8153 0ZM1.73749 4.18526C1.73807 2.83537 2.83537 1.73807 4.18469 1.73807H49.8147C51.1641 1.73807 52.2614 2.83595 52.2614 4.18526V6.11336H1.73749V4.18526ZM52.2619 31.1323C52.2619 32.481 51.1641 33.5789 49.8153 33.5789H4.18527C2.83595 33.5789 1.73807 32.481 1.73807 31.1323V13.8785H52.2619V31.1323ZM52.2619 12.1404H1.73807V7.85085H52.2619V12.1404Z" fill="#9B9B9B"/>
<path d="M8.39908 30.1531C10.0705 30.1531 11.4297 28.7945 11.4297 27.1248C11.4297 25.4539 10.0705 24.0942 8.39908 24.0942C6.7288 24.0942 5.36963 25.4539 5.36963 27.1248C5.36963 28.7945 6.7288 30.1531 8.39908 30.1531ZM8.39908 25.8322C9.11169 25.8322 9.69162 26.4122 9.69162 27.1248C9.69162 27.8362 9.11169 28.415 8.39908 28.415C7.68705 28.415 7.1077 27.8362 7.1077 27.1248C7.1077 26.4122 7.68705 25.8322 8.39908 25.8322Z" fill="#9B9B9B"/>
<path d="M14.8798 28.0959H39.3657C39.8459 28.0959 40.2347 27.7072 40.2347 27.2269C40.2347 26.7466 39.8459 26.3578 39.3657 26.3578H14.8798C14.3995 26.3578 14.0107 26.7466 14.0107 27.2269C14.0107 27.7072 14.3995 28.0959 14.8798 28.0959Z" fill="#9B9B9B"/>
</svg>
