<svg width="37" height="35" viewBox="0 0 37 35" fill="none" xmlns="http://www.w3.org/2000/svg">
<path d="M36.8497 4.59579C36.7319 4.46036 36.5593 4.38244 36.3775 4.38244H7.00945L5.81196 0.436898C5.7327 0.177452 5.49038 0 5.21528 0H0.622398C0.27842 0 0 0.273725 0 0.611903C0 0.950081 0.27842 1.2238 0.622398 1.2238H4.75139L12.3173 26.1503C12.3181 26.1531 12.3206 26.1556 12.3214 26.1584L13.2612 29.3011C12.6679 29.8808 12.3003 30.6832 12.3003 31.568C12.3003 33.3344 13.7612 34.7716 15.5566 34.7716C17.2944 34.7716 18.7139 33.4221 18.8014 31.732H26.9586C26.9581 31.7545 26.9552 31.7765 26.9552 31.7993C26.9552 33.5641 28.4154 35 30.21 35C32.0046 35 33.4651 33.5641 33.4651 31.7993C33.4651 30.0346 32.0046 28.5987 30.21 28.5987C28.8826 28.5987 27.7403 29.3852 27.2345 30.5082H18.6238C18.4645 30.0615 18.2076 29.6507 17.857 29.306C17.2425 28.7019 16.4259 28.3686 15.5579 28.3686C15.5575 28.3686 15.5571 28.3686 15.5571 28.3686C15.1301 28.3686 14.723 28.4518 14.3492 28.5995L13.7475 26.5872H33.1137C33.4211 26.5872 33.6825 26.3665 33.7286 26.0679L36.9929 5.08654C37.0203 4.91031 36.968 4.73123 36.8497 4.59579ZM30.21 29.8229C31.3183 29.8229 32.2203 30.7097 32.2203 31.7998C32.2203 32.8898 31.3183 33.7766 30.21 33.7766C29.1017 33.7766 28.2 32.8898 28.2 31.7998C28.2 30.7097 29.1017 29.8229 30.21 29.8229ZM15.5571 29.5928H15.5575C16.0931 29.5928 16.5969 29.7984 16.9761 30.1717C17.3558 30.5449 17.5645 31.0414 17.5645 31.5689C17.5645 32.6605 16.6637 33.5486 15.5562 33.5486C14.4471 33.5486 13.5446 32.6605 13.5446 31.5689C13.545 30.4793 14.4475 29.5928 15.5571 29.5928ZM32.5788 25.3638H13.3811L12.2044 21.428C12.1895 21.3782 12.1671 21.333 12.1413 21.2901L7.38081 5.60625H35.6526L32.5788 25.3638Z" fill="white"/>
</svg>
