<svg width="37" height="37" viewBox="0 0 37 37" fill="none" xmlns="http://www.w3.org/2000/svg">
<path d="M36.9734 12.5411C36.7421 8.98421 35.022 5.72391 32.1299 3.35952C29.2377 0.995137 25.5231 -0.18601 21.6602 0.0238322C17.8015 0.237025 14.2636 1.82236 11.6986 4.4879C6.55652 9.83112 6.92644 17.9505 12.4189 22.8849L10.0681 25.3569L9.31413 24.7408C9.03282 24.5104 8.60382 24.5339 8.35387 24.7919L0.17374 33.217C0.052856 33.341 -0.00894952 33.5043 0.00104842 33.6706C0.0110464 33.8369 0.0923935 33.9931 0.226911 34.1041L2.79684 36.2239C2.92726 36.3311 3.0895 36.3839 3.25129 36.3839C3.43852 36.3839 3.62485 36.3131 3.75936 36.1745L11.9504 27.7385C12.0713 27.6141 12.1335 27.4503 12.1231 27.2832C12.1126 27.1169 12.0304 26.9603 11.895 26.8497L11.0883 26.1904L13.4378 23.7201C16.0205 25.6455 19.1912 26.6788 22.5069 26.6788C22.8009 26.6788 23.0967 26.6704 23.3926 26.6541C27.2513 26.4405 30.7892 24.8551 33.3546 22.1896C35.92 19.5241 37.2047 16.0979 36.9734 12.5411ZM3.19812 34.8685L1.64435 33.5868L8.91739 26.0962L10.478 27.3716L3.19812 34.8685ZM32.3344 21.3561C30.0108 23.7707 26.806 25.2066 23.3108 25.3996C19.8161 25.5982 16.4477 24.5196 13.8277 22.3785C8.41977 17.9576 7.92214 10.3057 12.7189 5.3214C15.0425 2.90675 18.2473 1.47095 21.7425 1.27786C22.0106 1.26278 22.2778 1.25566 22.5446 1.25566C25.7503 1.25566 28.8069 2.32204 31.226 4.29942C33.8459 6.44098 35.4037 9.39468 35.6132 12.616C35.8223 15.8378 34.6575 18.9419 32.3344 21.3561Z" fill="white"/>
</svg>
